<?xml version="1.0" standalone="no"?>
<!DOCTYPE svg PUBLIC "-//W3C//DTD SVG 20010904//EN"
 "http://www.w3.org/TR/2001/REC-SVG-20010904/DTD/svg10.dtd">
<svg version="1.0" xmlns="http://www.w3.org/2000/svg"
 width="300.000000pt" height="129.000000pt" viewBox="0 0 300.000000 129.000000"
 preserveAspectRatio="xMidYMid meet">
<metadata>
Created by potrace 1.10, written by Peter Selinger 2001-2011
</metadata>
<g transform="translate(0.000000,129.000000) scale(0.100000,-0.100000)"
fill="#000000" stroke="none">
<path d="M658 1193 c-21 -24 -238 -351 -238 -358 0 -4 -21 -36 -46 -72 -25
-35 -44 -66 -42 -68 4 -5 340 462 352 490 6 12 -2 23 196 -260 91 -130 171
-244 178 -254 10 -15 7 -24 -20 -62 -18 -24 -73 -101 -123 -171 -200 -282
-224 -318 -206 -318 8 0 43 43 133 165 50 67 106 144 118 161 90 129 118 173
124 197 10 41 10 42 -232 387 -125 178 -157 205 -194 163z"/>
<path d="M665 1091 c-9 -55 -10 -241 -1 -269 7 -20 2 -25 -41 -43 -26 -12 -84
-38 -128 -59 -44 -20 -97 -43 -118 -51 -20 -7 -36 -18 -34 -23 3 -9 43 -32
222 -130 33 -18 74 -41 91 -51 l30 -18 100 53 c54 29 104 56 109 60 6 4 43 24
83 45 40 21 70 41 65 46 -5 5 -62 30 -128 58 -66 27 -144 59 -172 72 l-53 23
0 163 c0 156 -11 209 -25 124z m170 -383 c6 -6 -22 -9 -75 -8 -152 3 -220 0
-220 -10 0 -5 18 -10 41 -10 33 0 40 -3 35 -15 -5 -13 -2 -14 15 -4 17 9 25 8
36 -4 22 -22 0 -60 -30 -52 -20 5 -20 5 -3 -6 14 -9 21 -8 33 4 13 13 18 13
43 -1 27 -15 30 -15 50 3 15 14 19 26 15 46 -5 24 -3 28 22 33 37 9 164 -30
157 -47 -5 -13 -100 -62 -107 -56 -2 2 -10 -1 -18 -7 -22 -18 -127 -74 -137
-74 -6 0 -38 16 -72 35 -59 33 -92 47 -60 24 12 -8 10 -9 -9 -4 -42 12 -172
87 -169 97 2 6 22 17 43 25 22 9 83 32 135 53 52 21 104 40 115 42 19 4 139
-44 160 -64z m-81 -56 c15 -18 15 -20 -2 -35 -18 -16 -20 -16 -37 3 -14 16
-15 22 -5 35 16 19 23 19 44 -3z"/>
<path d="M1219 808 c-42 -16 -48 -36 -49 -160 0 -108 2 -119 22 -138 32 -29
145 -29 199 2 l39 22 23 -22 c30 -28 52 -28 82 3 22 21 25 33 25 100 0 59 3
75 14 75 22 0 29 -17 27 -72 -2 -103 53 -159 104 -107 19 19 25 38 28 90 5 73
11 89 33 89 11 0 14 -16 14 -75 0 -67 3 -79 24 -100 30 -30 63 -26 93 11 14
18 27 25 38 20 9 -3 25 -2 35 4 14 7 19 5 23 -9 2 -11 17 -27 31 -36 23 -15
30 -16 51 -5 19 10 31 11 50 2 17 -8 33 -8 51 -2 17 7 32 7 45 -1 26 -14 56
-3 75 27 l16 24 40 -32 c38 -30 42 -31 75 -19 25 10 38 10 46 2 18 -18 163
-14 192 5 29 19 33 58 9 85 -13 14 -14 24 -6 47 6 19 6 35 0 46 -7 13 -5 23 8
37 14 15 16 25 8 47 -15 42 -48 54 -134 46 -41 -3 -95 -6 -120 -6 -35 1 -50
-4 -72 -25 l-28 -27 -26 24 c-22 21 -36 25 -102 26 -42 2 -82 -2 -87 -6 -6 -5
-17 -5 -25 0 -31 20 -67 10 -101 -25 -19 -19 -37 -35 -40 -35 -3 0 -23 16 -43
36 -32 31 -42 35 -69 30 -18 -4 -36 -6 -42 -5 -87 9 -229 8 -241 -2 -11 -9
-18 -9 -26 -1 -20 20 -56 13 -81 -13 -23 -26 -23 -26 -41 -6 -26 29 -140 46
-187 29z m160 -52 c23 -21 28 -65 9 -84 -9 -9 -8 -16 5 -30 9 -10 17 -33 17
-50 0 -45 -29 -60 -123 -64 l-79 -3 -1 129 -2 128 76 -4 c58 -2 82 -8 98 -22z
m141 -105 l0 -130 -26 2 -25 2 0 123 c0 67 0 124 1 127 0 3 11 5 25 5 l25 0 0
-129z m260 104 c0 -23 -4 -25 -46 -25 l-46 0 3 -100 c2 -55 1 -100 -3 -100
-51 -1 -48 -7 -48 100 l0 100 -40 0 c-36 0 -40 3 -40 25 l0 25 110 0 110 0 0
-25z m124 -35 c21 -33 40 -60 44 -60 4 0 24 27 44 60 30 48 42 60 63 60 l25 0
0 -125 0 -125 -28 0 -27 0 3 78 3 77 -20 -25 c-11 -14 -28 -40 -38 -57 -10
-18 -21 -33 -25 -33 -3 0 -21 26 -40 58 l-33 57 -3 -77 c-3 -77 -3 -78 -30
-78 l-27 0 2 122 c1 68 2 124 3 126 0 1 11 2 24 2 18 0 32 -14 60 -60z m276
-65 l0 -125 -30 0 -30 0 0 125 0 125 30 0 30 0 0 -125z m137 50 c29 -38 56
-71 61 -73 4 -1 6 32 4 73 -4 75 -4 75 22 75 l26 0 0 -125 0 -125 -24 0 c-20
0 -36 16 -78 76 l-53 76 -3 -76 c-3 -73 -4 -76 -27 -76 -24 0 -24 1 -27 121
-2 66 -1 123 2 125 15 16 50 -10 97 -71z m343 50 c0 -24 -2 -25 -65 -25 -63 0
-65 -1 -65 -25 0 -24 3 -25 55 -25 52 0 55 -1 55 -25 0 -24 -3 -25 -55 -25
-54 0 -55 -1 -55 -29 l0 -29 65 6 c65 5 65 5 65 -22 l0 -26 -92 0 -93 0 -1
125 -1 125 93 0 c94 0 94 0 94 -25z"/>
<path d="M1260 706 c0 -24 3 -26 46 -26 41 0 45 2 42 23 -2 18 -10 23 -45 25
-40 3 -43 1 -43 -22z"/>
<path d="M1260 601 c0 -29 2 -31 38 -31 46 0 65 12 60 36 -2 15 -14 20 -51 22
-46 3 -47 3 -47 -27z"/>
<path d="M319 613 c9 -19 149 -220 261 -376 51 -72 98 -123 105 -116 3 4 -30
55 -73 115 -43 60 -116 161 -161 224 -82 114 -155 199 -132 153z"/>
<path d="M2110 472 c-37 -4 -70 -26 -70 -48 0 -33 40 -37 286 -30 347 10 359
25 19 25 -188 0 -281 3 -283 10 -3 8 86 11 284 11 158 0 285 3 282 6 -10 9
-51 12 -268 19 -113 4 -207 8 -210 9 -3 1 -21 0 -40 -2z"/>
<path d="M1400 463 c-174 -7 -113 -18 123 -23 141 -3 256 -9 255 -14 -2 -4
-122 -8 -268 -8 -334 1 -315 -17 27 -25 245 -6 263 -3 263 38 0 10 -9 23 -20
29 -18 10 -173 11 -380 3z"/>
<path d="M1904 462 c-17 -12 -44 -56 -44 -72 0 -9 14 -31 32 -49 l32 -33 33
36 c38 41 40 61 12 95 -27 33 -37 17 -11 -18 19 -26 20 -30 6 -42 -9 -7 -20
-24 -25 -37 -9 -24 -9 -24 -38 14 l-28 39 21 30 c12 17 26 33 31 37 13 10 -6
10 -21 0z"/>
</g>
</svg>
